<mxfile host="Electron" modified="2024-01-03T20:42:34.466Z" agent="Mozilla/5.0 (Windows NT 10.0; Win64; x64) AppleWebKit/537.36 (KHTML, like Gecko) draw.io/22.1.2 Chrome/114.0.5735.289 Electron/25.9.4 Safari/537.36" etag="e8ofwMYj-mka240U-Wy2" version="22.1.2" type="device">
  <diagram name="Page-1" id="Wm_sZC0fQeaQL_-JOw_j">
    <mxGraphModel dx="830" dy="482" grid="1" gridSize="10" guides="1" tooltips="1" connect="1" arrows="1" fold="1" page="1" pageScale="1" pageWidth="827" pageHeight="1169" math="0" shadow="0">
      <root>
        <mxCell id="0" />
        <mxCell id="1" parent="0" />
        <mxCell id="D1mZ0Xc0935gew-mhvEQ-1" value="" style="shape=image;verticalLabelPosition=bottom;labelBackgroundColor=default;verticalAlign=top;aspect=fixed;imageAspect=0;image=data:image/png,iVBORw0KGgoAAAANSUhEUgAAAx0AAAKkCAYAAABlK1KaAAAAAXNSR0IArs4c6QAAAARnQU1BAACxjwv8YQUAAAAJcEhZcwAADsMAAA7DAcdvqGQAAFirSURBVHhe7f1/kJz1nR/6fuTsuZsTO3e158rg6+wJMGjMWsjFHolS5QrZFFCSSxLnBGFE6nBvrWStI5nBtqb2Imq1pkpHWYh8EbU14EVCsg+M8ofKhQiwKUtaUAHBF8mJFpRDWcjGEgLiXJcBbXacNVt7dpOa+3yffnqmu6d7pnumn9Fo5vVyPej5/aO7p/19P9/vt58AAACAGec/ffrT//PP/9E/upCGNF7MBgCAMT5W/Asd+di8ef9b9s//LQ3FOAAANCV0MCnDw8N/V4zWjQMAQCOhg0n52Lx5f5CljbNpyMcBAAAAAAAAAAAAAAAAAAAAAAAAAAAAAAAAAAAAAAAAAAAAAAAAAAAAAAAAAAAAAAAAAAAAAAAAAAAAAAAAAAAAAAAAAAAAAAAAAAAAAAAAAAAAAAAAAAAAAAAAAAAAAAAAAAAAAAAAAAAAAAAAAAAAAAAAAAAAAAAAAAAAAAAAAAAAAACYgnlXXXXVcDHOLPPrv/7r8V//638tpmaZef8w/odPL4j//mPZ+N/9l3j/F38Rs/RKAQAuefOGM8U4AABA16X7xAAAAKUROgAAgFIJHQAAQKmEDgAAoFRCBwAAUKqOfr1qolXnzZtXjAEAAFS0HTre/89/GX/1q7+Of/iJfzDuvwv/8T8qtgAAAGgzdGx98f8d137id+KXf/Wr+I1/+Ilx//3RRyfjX/3TJ4stAQCAuW7C0JFqOP707Pfj9V/+u2JOa//5r/5zLP2NfxJfXvK7cfn/8JvFXAAAmN3a7WbQZiOjaZPO+7XXXoulS5cWc+q9/vrrcf3110/5vMftSJ52nppMpRqM5J2DfxvnDzQffvKdv8xDR1o3bdP6xI7Gluzi0gVWhhvikXPFok6ceyRumOy24yrOb8vRYrreuUduGD3n0s5hbjm6ZfTzcEPti3l0S9P5zdc/F4/cMDq/xds3ojvHHJV/Lm54JDsLAGCuSuXf8YaZKAWO/8cNK/Jw0SjNS8vSOlM14a9Xpb4aqelUMvx3EZ/4jd+M+Qsuqxv+L7/+9+Nv/stH+Tpp3bTN+JbHwNnKi392IKJ/wyQKawu3xvHh47F1YTHdkRQsxgsLy2P56QeaLD8au/tPFOOZKZ0DuSy4/fS26h/jkVjcv6F43bP3aE3Ekcb5Ldc/G5+5v5iffahOr9mS7aGFrh2zquFzAQBwiUg1HD88/uqY4FENHGlZq1qQTkwYOmprOpJf++/+u2Js1Mf+3t8rxmKkpqNdC7feH5tPPBWH6wpxF9/ixRFPNZ7U0edi/+bNsbmYpAuy4LZ1dTEevbFoeTGav9a3RWXR6tiWhdP8/Wi1frbO6ur8hZ+J7O1rrWvHrDj3yAMRAwNZVAUAuPQ0Bo9uB46ko5qOWtWmJo3aq+lopVIDsWVLasJU3KnOmzCNNm0ZbTbTUFtRt17tXe7GZjdpuzWxP05Ef282r0U7nEXb7o/F/bvr9/PA6RjYdlsxnTScQ9MmPpO4pqOjy0eb8nSyn6RFc6Omr1M769bvv7a50ehrONE51r4vzZyNMycWx2cWZpv99HQsX9RbzE85YnGcOHO2mKoaXb9OXXiYyBSPmV3fhjP3x761xTQAwCWoNnh0O3AkHdd0TKTTmo50l3j/8jtj7UjB8UScXnQghof3ZYXGrBDb2x+LjxRNW/JmM82aRaX1noo7iyZbw0ciHshXSoXp3njqzrNF05jh2Ld6dezLVthcbeK1r1XRdHXctnl/PDdSAD8c2RFqzrNRs2MVizq6piwMPRBxoFgWdU152t1Pq3Np8Tod3R39i480Wbf1ea7eV8xPr+X+2qZojefY7H1p7uiWNXF6YFu2XXsa16/0t8nCzXO3jfO+1pvaMbPXeUN2fdva3RoAaMfIjc0JBi4dk67pqBZQG7VX01HUMmQflt7+xXHk+NYYLcsvjzurJftzP43TWTy4rVqmW7g17t98IsbcfM7XG93nvDX7K3eoU1A4sTnun2Sni9XbsoL2A5X+Jkd3ZwXw+2vPs8G4x+rkmrIwdKA4TpNlbe2n1bm0ep16F8Xy/WvqO0hPdJ4jHa5TrVGtxnNscrwxKjUtDyw6G8fbeq+ar79w6/HK5/K257LjFQGpZU3L1I957pENWbA7oE8PAHRZtZw50UD31Dapqm1q1S0d13T89V/9l/ibv/6ofvhodHl7NR2jHckrd8S7YXPRAbgY2rzTPa6Fa+POeCoOH30kHjg9ENN/Q/tc/PR0Mdo1TV6nLFAcz8YPxIa8cF7fTKuJVJAf6XB9NgbG7cww0fuSCvMbUtVOfYBoaNo02vSp+fp1Vu+LI9WAVFxb5fjVz1o3jlnpPH6iv7cSaHr748SJ/ui94ZFiOQDApaGxD0djH49u6Kim42//9qO48P/7j/HhX5yPv/y/ns2HNP5f/uLDiF+rpM2p9elokHcIrm3ilBX+99fcfa8q1hvTdCeFhuVN5rdtYWy9f3H0r+mPuHNt61qOpN1jTXhNJ0Y7sBc1FmOuNxlvP63OpdXrVEg1BWezBHH6p9ny8fZ/9kycWL4o8t4P+TmmkSYmOF4ub9p1/9jagrz25bmiZiIV8NNbkK3Uav2jR2tqMY7Gc/uXR033jHpdOWZqplcTps4OxPLlA3H2+NZiOQDAzNeq03i3g8e4oSPdwa3WdKRncPza2r+IT/yvfxMf/1/+z/j1z/3XfEjjad4n1v+f+TbVmo607dRlBbu8L0HRPCbvH9CsZqSyXlTvOqchv12fhYbj6SdOR+dX7uKn/hpFs5+Jbuuv3hYDy9tpotXqWI0muqblsfhMpcYh3T1ffKRVTdB4+2l93U1fp5pnU6TmbpVrHWf/6TWJ/uhN8zecicUtazpavS+jUm1C7F8zujwb8mZeqYbiSMSafF6qVqn8NHHL9Xt/Gg+MzBtdv5muHRMAoEZtWaHZMBOlB/81Bo6qavBI60zVhE8kT373T78ciz7+O3mgSDUZ4/37o4/+PL7//3qu2JLOHI0t8x6IRWc9+wMAgNmjrdCRvP+f/zKvwUhNp8b7d+E//kfFFnRO6AAAYPZpO3QkE606U6uNLh1CBwAAs09HoQMAAKBTE/56FQAAwFQIHQAAQKmEDgAAoFRCBwAAUCqhAwAAKJXQAQAAlEroAAAASjVvaGjIczoAAIDSqOkAAABKJXQAAAClEjoAAIBSCR0AAECphA4AAKBUQgcAAFAqoQMAACiV0AEAAJRqwocDzp8/vxgDAJhZsnJMMQbMZBelpmPPnj3FGAAAMNtpXgUAAJRK6AAAAEoldAAAc9Sx6J8/P++/On/V3jhfzE2O9Rfz56+KvbULpupYf77fVe3utHb9Trcdz/m9sSpdX/+xYkaNbhynm+fKrCB0AACcfDaeHykfH4vDg8Uo0BVCBwAwpy1btiz778l4tpo6jh2OwViWza9MXlQrB/Jf6Hrh7p768TJ14zjTda5cMoQOAGBOO7loUWxM/771dj59/tyZLImsi3WL8slR1SZJ1aHaJKs6f9WqmuWror9/1ei6jc2Y3np0dN3G/YwM/XGs3eZVrc4taVhWt/2Z3WPPo9kx+/vHrpe0Oq7mVTQQOgCAWefChQvjDvXWxtqUOgYPx7GsyPz8sycjFi2MhZWFhWPRv2R7nNx4KL+DP3RqVyw7uT2W1IWJdfF4tuzUrkrNyWBsy9Y9Ffnk4O66viEnz1wzum62n6/WFc6Xxa5T2TGGBmJlMWd845xbCgVp2bJdcSoty4b62oeac862ebRJF4+k+fm285qMavY+GGbXMB6hAwCYlRYsWNByaLSykjri8N7nI2WOjWsbivt5k6vM4PrKHf1U2M4X1MiCSm1xftk1V2f/7YmFjTUmmWXrvpiv2/PFdVnEyMrxRS1Lbtm6+GInrZLGObfzzz+bj1ePN0Zxzj3FSZ4517xmoun5tvOa1Gj2PhhmzzARoQMAYOXavInVmWdTIX1jNGaOvMlVZtmuU5W7+tVhoL26iDK1c26LFnaSYtozk18TZh6hAwAgVuZNrE6ezKs5xjRrGrnDv/3RGGk8dGzvpH9O9+Szz+d9H6o1EWNqVjow3rlVlw3urumHMQnNzrfbrwmzm9ABAJCpNLFqEQB67o4XUp+FGIz1qSlRGtY/WyychNT3IdvHku0p5ByKKVUOjHdu1WXF8dKySXXubna+3X5NmNXmDQ0NDRfjTaUPULft2bMn+vr6iikAgMlJzXmaSZ1a22lnzgTSr1CtH8ybUPn5W8Yz0d+cmg4AAKBUQgcAAFCq7oeOFffEnj33xIpiEgCAS5Qni9MlXQwdPXHHzj2x57qIN4s5AAAAXQwd5+PpHX3R99gbxTQAAMBF7NORfsGqcQAAAGafixY60k/mNg4AAMDsc9FCBwAAMDcIHQAAQKmEDgAAoFRCBwAAUKoSQser8VjfY9l/AQAA1HQAAAAlEzoAAIBSCR0AAECphA4AAKBUQgcAAFAqoQMAmMOORf/8+TE/Dav2xvlibnKsv5g/f1XsrV0wVcf68/2u6upO61XOvT+7uomcj72rxq57fu+q4torQ925nt8bq4r5/TUbVV+v2nmt1s0Vr8Po0M45FO9X3XvV/Boqat7fkaHm/ZyG92Jizc6xC+fU7rVN02sgdAAAJCefjedHyl3H4vBgMXpJqRTA10/h3FN4WLL9ZGw8NBRDQ9lwaGOc3L4k5o9JDRGDu+uDWqPzzz8bJ4vxM+dq1kxhJJ3kxkOVY2RDdpgRY85h6FCsK5ZNzsY4VOwnu5rYvqSdQDbNlu2KU8VrcWrXspav+aVK6AAA5rxly5Zl/z0Zz1ZTx7HDMRjLsvmVyUvFsf4lsX3RrsjKrJOThYHdKbBkYWBgZWVWrByoBILB3WNrfE5uj0dblovPx/PPZpFj2cbYmJ3PyWefHwko1TCy7JqrKzMyKwcGIj9ks3PIltx9d08xPhVXxzW1r012bamQ/0JX9t09PXc/XnkPm73m7Zph1yZ0AABz3slFiyKVq0++9XY+ff7cmaxEvC7WLconR9U0F8qHajOf6vxVq2qWr4r+/pomQo13rd96dHTdxv2MDP1xrKH5S7XZUbOb4CsHhmJo4IvFVI02m9BUw8DGtSOl/dzVeUm9JpQlRZgYXN+i1uD885FnjnXfiG+sy1PHSE1Sz8LKC5vu5jeeU6tz6IrinLKdVwJO7evS6r0t1ql7b2ubdzVsN+6+2tYTX0yvWfZK5B/JyZxb43vezjlN+bxbEzoAAGJtrM3v5h/OCtDFHfpFC2NhZWHhWPQv2R4nq02CTu2KZSe3x5K60v+6eLxoHpMKjIOxLVv3VNO71ifPXDO6brafr9YVvpfFrlOpqU1x9/8iq4aEetfENx7PXoPsKnfXnXtFJTwsi3Vf7Cm2rwktKweK1yhd+pK6wvHbb6VUsCxqKkG6YDDWp0J0ev9SU6vRKpRRPXfHC+l9TUOq2hnzntS8t9UanlRIT/usaRqV1yxMuK/25c3SJnNuddr57Ga6eN6NhA4AgMzKSuqIw3srd8PH3GnPm1xlBtdX7gLnBdgGWVCpbcxSaT7UE83K7MvWfTFft+eL67Iidla+K2pZcsvWRVZW754pNrXJa34yixY2bJ8VUrflZdNH43Axq6IIbtkrtH1J9loVnUxqm1j13P1Cfk6j4eOrNaGsuMPfNdU+HSkApgDS4scBqnf6m3WKaXhvUxgYaSZWvJd1mu2rriahvR8oGHnNOzy3Ou18dqvGO84UCB0AAMnKtXkTqzPPpoLkxmjMHNWC97Jdpyp3gqtDs7vml6hqjcbg4fo74OPVPqz8RqW2Y7C2jFptxjRSA1DU9tR11q9I4aMSPCpBoxL+mhScJ7Lsmpi4cqSh2VKN/Ne3ssJ4pPc378TSvsYw1nJftTUJQy9E6wxYDW2Vz+FUzi1p97M71eOMR+gAAMitzJtYnTyZFfaqbf5rjNRIbH90tA/Dsb2T7uhbvevfbh+Gak1IJQB0qM0+HalGJC9r1jYFy7ZNN72X7Xq8eSE5K0g/XtRWVI2tARgt7KcmVuf39te8btUCdhFqVn4jDyip2dVo659jsTffYGV8o7JwtAnRsUdje7Z509qGMRqONeJnUSmXV5qDVQvpE6l+Jup/xev8pPZVK/9BgHRNu76RXfHU99feZ3dyr0G7hA4AgEL1LnvTAJDuUqe28NX+AXkTlGeLhZOQ2tRn+0g/DVv/S00NikJ4tWnM7jNpojypM3p2mZVmUfk1DuZ3yMdrmtVz97a8lqhitGCfCq9VI53Hs7D1szgzuv/5qYCd+rBU7/z3xN0vVGpGBtdX11kf1Vc61YykYDSyrI3zy9Yu3rNKYX7jocZahv8x7k7txLJQlM7rq+2+rdXPRPFepvNZtTcmt6+afawfrPTpqVxT9npMZn+12vrsTvI1aNO8oaGh4WK8qXRS3bZnz57o6+srpgAAJic1EWnmwoULsWDBgmIKKNtEf3NqOgAAgFIJHQAAQKmEDgAAoFRCBwAAUCqhAwAAKJXQAQAAlEroAAAASiV0AAAApRI6AACAUgkdAABAqYQOAACgVEIHAABQKqEDAAAoldABAMxhx6J//vyYn4ZVe+N8MTc51l/Mn78q9tYumKpj/fl+V3V1p8n52Luqes7tnHfj+jVDzWtxfu+qumVNz/v83lhVLO8/VszL1by+NUPdPmq2rV/efNv6/Vd1sm5r1WvtdLuKkj5LpX1eppfQAQCQnHw2nh8p1x2Lw4PF6CXj7Yh1p2JoaCgbDsXGOBnbl/RnV9JKT9z9Qlp3KE7tWpbPWbar2P6Fu7OllcLyku0nY+OhynpDh7K9bl8S8xtK5eeffzY7WsWZc00Kx8t2xan8vCrHaraP2nVeuDsdvWpjHMrnp2uKGFw/3jV1sm6JLvnPUvcJHQDAnLdsWSp0n4xnqyXFY4djMJZl8yuTl4aVcfdIYX1lrE2l7jgTzTJAW87vjd2psLzxUAysrMyKlQOR5Y6sNL+75o79+Xj+2SxyLNsYG7PX6+Szz9fd5W/Uc/fjkWecun20o5Nr6sL1T1LXP0vZaz42iF16hA4AYM47uWhRfmf85Ftv59Pnz53JSo/rYt2ifHJUY1OgajOa6vxVq2qWr4r+/pqmSY139t96dHTdxv2MDP1xrKF5TXtNgM5HuoSIRbGwUmVRt492VGsvNq6tJo6Kq69pKFSffz7yzLHuG/GNdXnqqLnL30xPfDGtl+2jeLnbMxKCtsWE5e/GdVu9b/mi0fco1eqMmNTr3uZnqdX5TPT+t9quWKfu81dzjTOB0AEAEGsrd8YHD8exrKiW37lftDAWVhYWjkX/ku1xcuOh/M7z0Kldsezk9lhSVwpdF49nyyrNlU7GYGzL1j3V9M7+yTPXjK6b7eerdYFgWew6lZoJDUR9kb8dqa/Gkkjl52W7vjGJ7cfXs7A+iVXCybJY98WeYllNIJlAXVOs9FoWBeb6gv1grE/zs9d+UWrmNVLt0kyLdXvujhfyZlfZkKpqqq93VljPg0bxnua1OFPWxmep1fmMaPH+T7hdzecvW/boBAFpOl200LFkyZJ8AACYCVZWSopxeG/lzn3jHf5KM5nM4PrKneQUQPIFNbLCZe1N+GXXXJ39tycayum5Zeu+mK/b88V1WREzKyPW3vZfti6yMvwkpM7MlcCR+mGMNMnpYhOd/M59ZlFehVIUqrNXYvuS7DVZX+m8MFETq6rKPgo1fTrqc0Xqp1EJboPrJ+qIPc661VqC4hyTY0Vni+p7XanFaUNdjcPYc5rws5Q0OZ8R473/423X8Plr2r/mIrlooePUqVP5AAAwI6xcmzeLOfNsunO/MRrLidXC9khn6+ow7p336ZRqONbnwSgFjqmeVrVGY/Bw/e3yt99KIWNZ5HmqaFo1GhiKWp1xm1hVg8rY17i1nrh7W3p3snDz1YmaDY1dN//1qCwkRnrvulGdUVvjMPTC2OZeE3yWJns+Xb+OaaR5FQBArtL5+OTJ/Nb0mGZJIzUS2x+NkWL4sb0ddoYeVa0NaNV3olG1JqRS6G/i2KN5DUddx++qSfTpaNppPNtPusG+bNfjeUG7eu7VWptU4K/212jVxOpY/ySbfq38RhFo2mg2VLdutX9LpQlYNTwm1ZqNSo1ANQzVm/B1b2q8z1Lr8xnfzya53cwgdAAAFCrNYloEgHR3O/XjqPYbyJu4PFssnISsQJz6MFT7FLSsmagWoItmXbvPVArKjUYKodXmX/kwiedC1Fg5kPoHRKXpVH69g3lNT6WZVrWQXikEV1VrSOqaWBXXmvaxfrDSX2FMU6+adcZ0us9VazDSJU70U7i16z4aC6s1H9l1fLXmLeu5+4U8WOU/4Vs0SxvR5uveSuvPUk1NTMP5jO9/nOR2M8O8oaGh4WK8qfQid9uePXuir6+vmAIAmJzUvKWZCxcuxIIFC4opoGwT/c2p6QAAAEoldAAAAKUSOgAAgFIJHQAAQKmEDgAAoFRCBwAAUCqhAwAAKJXQAQAAlEroAAAASiV0AAAApZo3NDQ0XIw3NX/+/GKse/bs2RN9fX3FFADA5GTlmGKs3oULF4oxYLosWLCgGBtL6AAALlmtQgcws2heBQAAlEroAAAASiV0AAAApRI6AACAUgkdAABAqYQOAACgVEIHAABQKqEDAAAoldABAACUSugAAABKJXQAAHPa+b2rYv78+SPDqr3niyUXybH+5udxfm+sqjnPfFi1N0o521bnAJMkdAAAc9ax/vmxZPvJ2HhoKIaG0nAo1hXLJq0osPcfK6a7bdmuOJXO9dDGiJPbY0lpB4LuEToAgLnp/N7YPZj9u/FQDKyszIpYGXff3VOMT86xw2mn0+Dqa2JZMQozndABAMxJ559/Nk5m/25cO5I46hU1FtVhpKlRdf6qVaPNnYpmTqnmZH2ROQbXZ/NTLcSYZlH9kddNtNp/u95+Kz//ZddcPfYY1WZX45xrrtV20GXzhoaGhovxptIHsNv27NkTfX19xRQAwOSkJlHNXLhwoRhrbsGCBUVAWBa7Tr0QYyo3UmE9pYeNh2JoYGVWNl810gxrIIplqZnTC3dH1C7L8ks1eFSn84L9ku1ZQKg5Vhv7X7brVLxQe2Ij+6lRbF+n2He+/cJHxznXY9E/f30MVvdR3X+aXnt4zDlM9JpC+rtqRegAAC5Z44WO8QpAyZhwUKNlcKgpkFcL/NXAUC2gt9y2KPhXMsfE+28ZOmr2U6e6vJisCx3NzrW6rNF45wAtTPQ3p3kVADAnrVy7Mf/3zLlLv0FRCjHzs8ARWUjIO5i34fy5M/m/KVhUOtEXQ56CoLuEDgBgblr5jdi1LP0A1JKaX5o6Fnv3nh8TSCbs/1Hj6msm7t49lf2PdT4q+WFZrPtiz0iYmEjPF9flHdFPbn+00sckObY3/EouZRA6AIA5qifufuFUHjzyTt95Z+r18WxatHIgrzFIgSTNrzZJaqcSoOfubZEixUhH8mamsP+xsuvYlo54MrYvmR9fzS+gDT13xwundmXBYzDW59eeDevb3Rg6o08HAHDJmkqfDqB7utenY8U9eVhIw847WnQoamcdAABgTmkzdKyIe+6KONjXF319B+ODmzfE2EyR1rksXnp4vHUAAIC5pr3QseK6uPbNN+LVfOLVOPpSxOeWNCSKnk/FZR/+KE7lnY9ejTfe/GRc/ul8CQAAMIe1FTp6PnVZfPj+z4upiPO/+CA+2Zgozp+KH8XnopJFVsR1174Zb1RSCgAAMIe136djQufj6QNZ7Lg39elIbbEeK2pGmlu7du3IAAAAzF7dCx09d8TODREH8n4fffHGdXvinhXFsiYOHz48MgAAALNXW6GjsTlVY3OrpGfJ5yJ+dCqqz5N59Y0349rrxkkdAADAnNBeTcfP348Pr70uKhFiRay+OeWLFC9WxD17dua/UpUHk88tiWr38hXXXTsmmAAAAHNPe6Hj/NOx42DEXfkzOFJ/jR3xdOMj8l99LB7+0efi3uI5HXfFwdgxZiUAAGCu8URyAOCS5YnkMDN074nkAAAAkyB0AAAApRI6AACAUunTAQBcsrrRp+PFF18sxoBGt9xySzE2von+5oQOAOCS1a3Qcf311xdTQNVrr73WtdCheRUAAFAqoQMAACiV0AEAAJRK6AAAAEoldAAAAKUSOgAAZpF3n7g9rrjiipHh9ifeTTPj9jS9/eVirZng5diezun2JyI7w1HVc60Z8muort90WfdVX8cZ9ZJdwoQOAIBZ4uXtV8SNO1+Puwbfi/feS8Ng3Fosu+Qs3RGv5NfwXjyz6cpiZqZm/is7lsbrO2+cYWGKZoQOAIDZ4N0n4tsHs3/vGoxdN1VmRdwUm2oL7LPMlZv+OLLcEXHw21FShQddInQAAMwC7770/Xg9+/euVSOJY6y3vj3adKnarKmxOVN1/svbi+nbx26TaWzGlYaRCodW++y6K+PmW1PqeD3OvlOZU6d6DcUw0hRrTBOu7ZFOvfaaUo1RnVbX1GJf1BM6AABmgXfOpkLy0ui9qjLd3K3xx0WzpHh9Z+xLpeMrN8UzRXOl9wbvyuf/fl21QZNtssJ8KpQv3fFKvl3abNTLsf3GnfH6XYOVfb6yI5Zm293YaROotE1RkG9n07feaYg1KXBsPJjX/NQ2xarf19LY8Uq69l1xU3FN1fU7v6aafRVzGCV0AADMGi3u+Fddc1WkxlZXXnVNPjlSUK/erU+F9EbFNlVpm5dfqKx3zVWVJVf1ptqGwssvRL704MbKnf9UWM8XdKim78Zoc7HWqudSVT3Has3PlTffmsWC7LReqAkKS2+Nm4vNGtfv+Jpq9sVYQgcAwCxw06rKrfkxd/wnkDqfp0J0pFqL+tv7k/LuO2/l/1ZrQUaGdpJDx96Nl76fiv93xXityqZqeq9pdhI6AABmg5u25J2q65sQvRxPjNvD+j9FpTy9NG69+cqRwvVEqrUAlYBTLfhXVGsUXt+5b7Rvw8tPlNLR++XtN0ZqEbV0x5YxTZoaQ9hEfV5myjXNVkIHAMCscGVseuaVPHgc3FjpC3HFFRvj+8XS5n4rNn09Fc5fj503XhG/P/7KI67c9Eze5yH/udorbsyOUSmw51IfkdTnIQ7GxvwcsmHjODuu6btR98yNmvl1P4lbM3/jwUo/irqf1K26aVdec1M5x0rH8FRT0apyovGa6vqRd3pNjDFvaGhouBhvav78+cVY9+zZsyf6+vqKKQCAycnKMcVYvQsXLsSCBQuKqfG9+OKLcf311xdTTEb61afq80G0OJo9XnvttbjllluKqfFN9DenpgMAgCl4OfZV2jjFFoGDFoQOAAA69HJsrzYzumJjHEy/NPXMprpfuYJaQgcAAB26KXbV/oqTwMEEhA4AAKBUOpIDAJesbnUkB5rrVkdyoQMAuGR1I3QAU+fXqwAAgItK6AAAAEoldAAAAKUSOgAAgFIJHQAAQKmEDgAAoFR+MhcAuGR5TgeUy3M6AIA5r1uh4/rrry+mgKrXXnuta6HjojWvWrJkST4AAACz20ULHadOncoHAABgdtORHAAAKJXQAQAAlEroAAAASiV0AADQ3LtPxO1XXBFX1A63PxHvpmUvb8+nb38in5qZLoVznCOEDgAAxrd0R7zy3nvx3uBdEa/vjBu3v1wsgPYIHQAAtOeq3lhajF4SbtoV72Vh6ZlNVxYzuFiEDgAA2vPO2Xg9+2dp71WV6arGZlh5E6x344nb0/TtUWnd9HJsH1lWo7rt7bfX7OP22L799tH9VWtWGppLvftEZZ3K4mL/tds0Nq9qOE/NrqaP0AEAwPhSk6pUUN94MOKuwbE1B1duimdS86uaJli//0TEzbemepHX4/svZYX7d9+Jt7KppbfeHM3rHW6NP862f2VHZZuD8fVsf69EPnnw20Vwae3l7RuzbZbGjleK89h1U7GkkALHjTvj9WpTsWxQAzJ9hA4AAMZXU1AfU5ivqtYipGBSuPLmW/PmWK+ffSfefen7WZRYGrfe3KKgf81VdWGkUptyZVx1TWV6Ilf1VsLKzhub12BUjj9e6KFMQgcAAFPy8vYsbNy4M2LHK5Wajqorb468suPgC7HvbFbkX3prtMocU3XlpmdGjv36zhvHNuMqXHOVyHExCB0AAEzBf4p3Urupohbj3cpE4cqiidXBOHiwe7UMqeYkeScFmVp5x/HBqIk9I6q1Lge/3TyMUC6hAwCAKfit2PT1VMyvNG36/e9X5lZVC/vVUDIlN20p+nhszDuCf/utyp6TvLYl7yBe9O344031ASf1O3llRyyt9k/JBh3Jp8+8oaGh4WK8qfnz5xdj3bNnz57o6+srpgAAJicrxxRj9S5cuBALFiwopsb34osvxvXXX19M0X3pV6xujJ2xI155piEIMKO99tprccsttxRT45vob05NBwAA5Xn3pfh+3p1DB+65TOgAAKAU1Q7mrzf7mV3mFKEDACjFrZ//fBwZHIwjTz4Za264oZjLXHLTrgl+Zpc5Q+gAALouBY4/+tKX4gvf+lZ84aGH4sH16wUPmMN0JAcAui7VcKTA8fGf/CSf/uizn40f3HdfrPnyl/PpbulWR3KguW51JBc6AICuS02qUg3Hx3/843z6o0WL4pV77421mzbl093SjdABTJ1frwIApt2ffPe7cXbLlryGIwWONP7t73ynWArMNUIHANB1R44fj28eOpQ3qXrn3ntj+/e+F3/2wx8WS4G5RugAAEqRgkfqw7F40yaBA+Y4oQMAACiV0AEAAJRK6AAAAErlJ3MBgFKlgsa8ymjXeU4HlMtzOgCAS8KlEDquv/76Ygqoeu2117oWOjSvAgAASiV0AAAApRI6AACAUgkdAABAqYQOAACgVEIHAMCc8XJsv+KKuKJ2uP2JeLdYOmkvb8/3dfsT2Z5qx8fz7hNxezr+9peLGcxmQgcAwFyQh4GNcfCuwXjvvfeK4ZXYcU2xfCJFmJi2jDCZ43WyzXRfzxzXfuhYcU/+fI007Lyjp5g51op7Kuvs2bMzxlkNAIBp83Js33gwYumOeGXXTcW85MrYtGtT9t+JvfxCtn07btqVB5pnNrWz19baPl6NTraZzP6ZvDZDx4q4566Ig3190dd3MD64eUPTQJECx8r3H84f/NfXtyOePl8smCVu/fzn48jgYBx58slYc8MNxVzmCu8/AJesl1+IVMReeuvN4weMapOn6lA0vXp5+xWRMktycOMETaKKGoRq86p3n7h9dH/FULf5W98ePWbbx2toJpYtb7pNJ9fT4rwrhx57PDrTXuhYcV1c++Yb8Wo+8WocfSnic0saU8eKuO6yl+LAbEsahVTg/KMvfSm+8K1vxRceeigeXL9ewXMO8f4DcCl795238n+vuaoSOeqDwO1RKWdnBesbd8br1eZXr+yIpa/vjBuzAvZNu96LwbvyTeOuwWxZXW3JOLKC/I07X4+lO17J91ndR71b44+zZa/sWBqRHW9fVp6f6Hgvb9+YhailseOVoplYtrzpNlduimfS8jSkhdn+fz+72E6vp9nx6ExboaPnU5fFh+//vJiKOP+LD+KTl3+6mCqkYPLB5bG6aIK1Z+cdMZtaV/X93u9F7+OPx8d/8pP4+I9/HL379sXXvvKVYimznfcfgNngrXcqd/Gv3PTM2BBQ1IbEwY2VMJICSL5g8qpNmKph56reLFg0uuaqvPblyqsqnUuq5zieyn5ej503dtBhvVq1MQkdHY+m2u/T0Y5rL4v3H05Nq/ri4Ac3x4ZxOnWsXbt2ZLgkDA9HzJtXTGSy8eE0j7nB+w/AJezKm2+NvNj8/Zda/lJVtTakWisxMszAu/p5aCoS0+s7b2z5C1ypGVUKT5GuqS5hdabd49Fad0PHm8dG+nG8+sabY2tDahw+fHhkuBT8yXe/G2e3bImPPvvZ+GjRonz829/5TrGU2W463399R2Yu7w1wybpyU/xx0XwpNS9qZiSY7NwXIz0WXn6iaHrVopZiAtVtKrUX78ZL32+/7mTC4+Ud1gejNkrUb/NuVHLU0rj15itHQlVVq/2/fvad/N93zjaca5Pj0b62Qkdjc6rG5lZzwZHjx+Obhw7FO/fdF6/ce29s/9734s9++MNiKbNd9f3/Qfb+v1Pi+6/vyMzlvQEuddW79fmd+qI/R97iaOmtkZXJ82DyTOrHEQdjY7H8io3fz7dNrtz09bzAPWFH8hrpmKmCoHLMG+P7eaxpz3jHy2sw8nMs+lr8ceUXuOq3eSc2fT1NVZpF/f7opeTG7P+mLZFyWbV52bffGj3XVsejffOGhobGbSMyf/78LGXcETvvvTyO9T0Wr6ZfstqzMt5/OP06Vavxnrhj571x+bG+eKzS+7xO6vORmmBditKLVdPIhjmozM9AuoueCrWp70iSalZS0Fnz5S/n01w83huYvDK/N7NyTDFW78KFC7FgwYJianwvvvhiXH/99cUUZUod2FPH8tR5W1/sme+1116LW265pZga30R/c+01rzr/dOzIkvBdeSfxLBMebPZzuK/GYw//KD53b1rn3rj5g4NNAwcwDn1HZi7vDcAUvRz7ssCRnhWyReCYc9qr6egyNR1cysr8DKTmOqnZTvp1rFSoTX1HNOWbGbw3MHllfm+q6Zjp0vMtUpOkQno44TOaJl0qpr+mA5gW+g7NXN4bgMm4KXbV/hKWwDFnqenokJoOpuMz4HM2c3lvoHNl/t2o6YDydLOmQ+jokAIH0/EZ8Dmbubw30Lky/266FTqA5oSOi0SBg+n4DPiczVzeG+hcmX833QgdwNRN9DenTwcAAFAqoQMAACiV0AEAAJRK6AAAAEoldAAAAKUSOgAAgFIJHQAAQKmEDqA0t37+83FkcDCOPPlkrLnhhmIuADDXCB1AKVLg+KMvfSm+8K1vxRceeigeXL9e8ACAOUroAErR93u/F72PPx4f/8lP4uM//nH07tsXX/vKV4qlAMBcInQA5Rgejpg3r5jIZOPDaR4AMOcIHUAp/uS7342zW7bER5/9bHy0aFE+/u3vfKdYCgDMJUIHUIojx4/HNw8dih/cd1+8c++9sf1734s/++EPi6UAwFwidAClScFjzZe/HIs3bRI4AGAOEzoAAIBSCR0AAECphA4AAKBUQgcAAFAqoQMAACiV0AEAAJRK6AAAAEoldAAAAKUSOgAAgFIJHQAAQKmEDgAAoFRCBwAAUCqhAwAAKJXQAQAAlEroAAAASiV0AAAApbpooWPJkiX5AAAAzG4XLXScOnUqHwAAgNlN8yoAAKBUQgcAAFAqoQMAACiV0AEAAJRK6AAAAEoldAAAAKUSOgAAgFIJHQAAQKmEDgAAoFRCBwAAUCqhAwAAKJXQAQAAlEroAAAASiV0AAAApRI6AACAUgkdAABAqYQOAACgVEIHAABQKqEDAAAoldABAACUSugAAABKJXQAAAClEjoAAIBSCR0AAECphA4AAKBUQgcAAFAqoQMAACiV0AEAAJRK6AAAAEoldAAAAKUSOgAAgFIJHQAAQKmEDgAAoFRCBwAAUCqhAwAAKFX7oWPFPbFnz5582HlHTzGzuZ47dsaenXfE+GsBAABzQZuhY0Xcc1fEwb6+6Os7GB/cvCFa544VsfrmTxbjAADAXNde6FhxXVz75hvxaj7xahx9KeJzS5qnjp47Vka89FJ8WEwDAABzW1uho+dTl8WH7/+8mIo4/4sP4pOXf7qYqtFzR2y4/Fg8dqqYHsfatWtHBgAAYPZqv0/HhHrijg2fix8drdSHTOTw4cMjAwAAMHt1LXT03LEhPvejA/H0+WIGAABApq3Q0dicqrG5VbXz+CdvvrfyC1f33hyf/OTNca9fsAIAgDmvvZqOn78fH157XRYtkhQwIn50KlVprIh79uyMO3pejcfyX7Yqhodfig8/fCke3vF0qPgAAIC5rb3Qcf7p2HEw4q78OR3pt3N3aEYFAAC0Zd7Q0NBwMd7U/Pnzi7HuSU2wUo3IpSi9WPMqo8xR0/EZmG2fs9l0Pb4DoHNl/t1k5ZhirN6FCxdiwYIFxRRQton+5rrWkRwAAKAZoQMAACiV0AEAAJRK6AAAAEoldAAAAKUSOgAAgFIJHQAAQKmEDgAAoFRCBwAAUCqhAwAAKJXQAQAAlEroAAAASiV0AAAApRI6AACAUgkdAABAqYQOAACgVEIHAABQKqEDAAAoldABAACUSugAAABKJXQAAAClEjoAAIBSCR0AAECphA4AAKBUQgcAAFAqoQMAACiV0AEAAJRK6AAAAEoldAAAAKUSOgAAgFIJHQAAQKmEDgAAoFRCBwAAUKqLFjqWLFmSDwAAwOx20ULHqVOn8gEAAJjdNK8CAABKJXQAAAClEjoAAIBSCR0AAECphA4AAKBUQgcAAFAqoQMAACiV0AEAAJRK6AAAAEoldAAAAKUSOgAAgFIJHQAAQKmEDgAAoFRCBwAAUCqhAwAAKJXQAQAAlEroAAAASiV0AAAApRI6AACAUgkdAABAqYQOAACgVEIHAABQKqEDAAAoldABAACUSugAgDbceuvn48iRwWx4MtasuaGYC0A7hA4AmEAKHH/0R1+KL3zhW9nwUDz44HrBA6ADQgcATKCv7/eit/fx+PjHf5INP87G98XXvvaVYikAExE6AGBCw9kwrzKamxfDw2keAO0QOgBgAn/yJ9+Ns2e3xEcffTYbFuXj3/72d4qlAExE6ACACRw5cjy++c1D8YMf3BfvvHNvbN/+vfizP/thsRSAiQgdANCGFDzWrPlyLF68SeAA6JDQAQAAlEroAAAASiV0AAAApRI6AACAUrUfOlbcE3v27MmHnXf0FDPrrbinsny8dQAAgLmlzdCxIu65K+JgX1/09R2MD27eEGMyRc8d8ak30vJx1gEAAOac9kLHiuvi2jffiFfziVfj6EsRn1vSkCjOPx1PV1bI/Dze/7AYBQAA5rS2QkfPpy6LD9//eTGV5YtffBCfvPzTxVQzn47LP/lB/OJ8MdnE2rVrRwYAAGD2ar9PRwdW3HNXXPbS0aJmpLnDhw+PDAAAwOzV5dDRE3fs3BMr3384djw9TjUHAAAwZ7QVOhqbUzU2t6pIgWNDxIE+gQMAABjRXk3Hz9+PD6+9LlbkEyti9c0RPzqVgsWKuGfPzsqvVK1YHTd/cCzkDQAAoFZ7oeP807HjYMRd+TM40m/n7hgTLlLtR1x718hzOjyrAwAASOYNDQ0NF+NNzZ8/vxjrnhRI0vM8LkXpxZpXGWWOmo7PwGz7nM2m6/EdwHD2IZjnQ9CRMv9usnJMMVbvwoULsWDBgmIKKNtEf3Nd7kgOAABQT+gAAABKJXQAAAClEjoAAIBSCR0AAECphA4AAKBUQgcAAFAqoQMAACiV0AEAAJRK6AAAAEoldAAAAKUSOgAAgFIJHQAAQKmEDgAAoFRCBwAAUCqhAwAAKJXQAQAAlEroAAAASiV0AAAApRI6AACAUgkdAABAqYQOAACgVEIHAABQKqEDAAAoldABAACUSugAAABKJXQAAAClEjoAAIBSCR0AAECphA4AAKBUQgcAAFAqoQMAACiV0AEAAJRK6AAAAEp10ULHkiVL8gEAAJjdLlroOHXqVD4AAACzm+ZVAMAcdj72rpof8+f3x7FiDtB9QgcAQNmO9WfBZn70SzbMUUIHAEDJjh0eLMZgbhI6AACqihqJ+atWxar0bz6+N87XLFvV39962d58Ks7vXZVPp5qNY/3zY32ROQbXZ9tUZtatD7Od0AEAMMa6eHxoKE7tWhZxcns8WtMs6uSZa+qWfXWC4LByYCgObayMbzw0FEMDKysTMIcIHQAAjRYtjJ5iNDlzbjRYLFv3xXxZzxfXRRY74uRbb+fzO7JyIIay4PLC3bVHgdlL6AAAAEoldAAAdODks8/n/TjOP/9snMz+3bh2tLlUtdbj7bfSklFXX5PqRGro08EcI3QAAHTi5PZYkgWGJduzYLHxUORdNFZ+I1IXjxhcn4eJ3WfqQ0bP3dsidesY6UgOc8y8oaGh4WK8qfSH02179uyJvr6+YurSkl6seZVR5qjp+AzMts/ZbLoe3wEMZx+CeT4EHSnz7yb1i2jmwoULsWDBgmKqS1LtxPrBWLbrlL4Y0GCivzk1HQAAQKmEDgAAoFRCBwBAO/zMLUya0AEAAJRK6AAAAEoldAAAAKUSOgAAgFJ5TkeH/EY/0/EZmG2fs9l0Pb4D8JyOzpX5dzPV53Q89NBDxRjQyn333VeMtTbR35zQ0SEFDqbjMzDbPmez6Xp8ByB0dK7Mv5tuhI4HH3ywmAIaffOb3+xK6NC8CgAAKJXQAQAAlEroAAAASiV0AAAApRI6AACAUgkdAABAqYQOAACgVEIHAABQKqGDS97nb/18DB4ZjCePPBk3rLmhmAsAwEwhdHBJS4HjS3/0pfjWF74VD33hoVj/4HrBAwBghhE6uKT9Xt/vxeO9j8dPPv6T+PHHfxz7evfFV772lWIpAAAzgdDBJW04+9+87H9VaXx4eLiYAgBgJhA6uKR990++G1vObonPfvTZWPTRonz8O9/+TrEUAICZQOjgknb8yPE49M1Dcd8P7ot737k3vrf9e/HDP/thsRQAgJlA6OCSl4LHl9d8OTYt3iRwAADMQN0NHSvuiT179uTDzjt6ipkAAMBc1sXQsSLuuSviYF9f9PUdjA9u3hDTlTu+cv9X4t/8+b+JP/3zP40v/+GXi7ndd+vnPx+nBwfjyJNPxpobyvlZ1um6ltl0nJHndJwu9zkd6f0/kr3/p0t8/5PZ9DmbrtfMd0DnZtNxpu39z75rjmTfNaez75o1JX7XzKrXbJq+A4CZ7+/9wR/8wf9WjDf1rW99qxibwIr/Ob78sTdi75//x2ziP8Zf/Pc3xar/+3+Mf3vmLyvLa6xduzYOHz5cTE1N+uL8n/7X/ykeXPhgvPjJF+O2f3xbXD7/8vg//r//R7FGd6Qvzj/60pfi6oGBuOLEifid3/3d+Nlf/VWc/dnPijWmbrquZTYdp/qcjoElA3HiN0/E7/7O78Zf/eyv4mdnu/e+JNX3f0n2/v9mSe9/Mps+Z9P1mvkO6NxsOs60vf/Zd80fZd81S7Lvmt/Mvmt+J/uu+Vn2XXO2y981s+o1m6bvgKwcU4zV++u//uv4B//gHxRTrR0/fjxuueWWYgpo9NJLL8UNbdw0mPBvbmhoaHi8IVulraHnjp3DO+/oGZ234p7hPfesqFunOuzZs6fp/MkM/+bP/83wb//qt9Mvp+b/++yvPjv8p3/+p03XncpwZHBw+Fe//dvpx1jz4Vef/ezwkSefrFtnqsN0XctsOs7gkcExx3jySHfflzRMx/ufhtn0OZuu18x3QOfDbDrOtL3/2XfNr7LjZG9+PvwqO86REr5rZtVrNk3fAc3KLmk4d+5c0/mNwx/+4R9m7ynQSvobafa30zhM9Dc3L/0n+6Ntaf78+cXY+LLQERviQOx4+nxlRurfcd0b0ffYq5XpGqnPRzN9fX3FWPuyL8r4g8/+Qf5guCT9bOquM7viny77p/l0t2RflPGFhx6Kj/+4cpyPFi2KV+69N9Zu2pRPd8N0XctsOk4WMPInkdce495X7o1Na7v3viTT8f4ns+lzNl2vme+Azs2m40zb+59913wh+675eHGcj7LjvJJ916zt8nfNrHrNpuk7ICvHFGP1Lly4EAsWLCimWnsoO0dgfPfdd18x1tpEf3MXLXRMJmA0k9qiLv1/Lo3HrngsfzDc1977Wvy7f/Xv4l/9f/5VsUZ3pLaoD65fH7379mWv2rw4u2VLbP/e9+LPfti9X0uarmuZTcdJfTjWP7g+fxJ5OkZ6TkcZP5s7He9/Mps+Z9P1mvkO6NxsOs60vf/Zd82D2XdNb/Zdk30A4mz2XbM9+675sy5/18yq12yavgOmGjqA7pi20NEYMsaEkBrdDB1J+gK9bd1teUXrv/7X/7rrX5xV6Qv0a1/5Sl63/u3vfKfrX5zJdF3LbDpOCh5f+VrlfUkPBizrZ3On4/1PZtPnbLpeM98BnZtNx5m29z/7rvla8V3z7ey7ptuBo2pWvWbT8DcjdMDMMH2ho+eO2Hnv5XGs77F4Nf2S1Z6V8f7DO6JJ5uh66AAA5iahA2aGif7muveTueefjh0HI+7KAsWePem3c5sHDgAAYG7p7sMBX30sr8FIQ5OuHAAAwBzU3dABAADQoHt9OjqgTwcA0A3d6NPx4osvFmNAo3Yfnjl9Hck7IHQAAN3QrdBx/fXXF1NA1Wuvvda10KF5FQAAUCqhAwAAKJXQAQAAlEroAAAASiV0AAAApRI6oEPp19cAgDa8vD2uuOKKmmF7vFws6oZ3n7g93+/2bu6UUggdANCBtWvXFmPAuN59Im7feDDirsF477338mHwrmIZc86sCR1LliwpxmaH2XQ9s+29mU18zmYu7w3TwXtDmd596fvxevbv0t6rKjMyN+3aFTcV48wtajoAAOi6K6+6Jv/39Z03xu1PvJuP10k1IbVNr25/IvK1qk2ybr99dHl1WabapCoNN+5MsYZLgdABAED33bQrXtmxNB9NwSOFhNHw8XJsv3FnvF5tevXKjlj6+s64sa5zxq3xx9myfB/Zsn1pURZI8qBRbKe51qVj3tDQ0HAx3tT8+fOLse7RERcA6Ia77mpe6rxw4UIsWLCgmBrfiy++GNdff30xRRlS7USlVmJp7Hjlmdj0zva4IvX3aJTCxKoXKsvS+K6bRrZduuOV+PrZG6Oy6L3IFo0sq07TXa+99lrccsstxdT4JvqbuyihAwCgG7JyTDFWT+iYeWoDwpZ3RoPEM5uuLNYopOZVQseM0M3QoXkVAABd9+4T22O0K8e78dL3KzUdqV/5lTffmo2lVlP7Rn9C9+UnatZv7qreSnOtt95JK1b3yaVA6AAAoARvxc4bi47gV9wYO18vmlalio0rN8UzqR9HHIyNRafwKzZ+v7LZOK7c9Ezej6PSRyTts1jAjKd5FQBwydK8CsqjeRUAAHDJuHRqOlbcE3vuujYf/fClh2PH0+fz8ZbzCz137Ix7P/ejeHjH01G/5CKbxPWsuGdPVBZ9GC89vCMaLvXi6fRaJnjPLpr8vCIO9j0WrxazLtlr68K1jH7eLv1rqZoR3wddup4Z8X3QjWsZ5xqnXSfXk3S6/nTqwrXMmO+ACajpgPJMe03HTTfdFP/8n//zuPfee+O+++5rOaR10rpd13NH7My/DPuir+9gfHDzhrijZ5z5I1bE6ps/WYzPIJO4nvTlv/L9h7P5adkMChwdX8uKuOeuy7JC0thrvHh64o6de2LPdRFvFnMq0rm2uoZO5k+nLl1L9v596o00bxZcy4iL/X3Qveu5+N8H3fybmQnfB51eT6frT6cuXcuM+A4AZpMJQ8fNN98cn/jEJ+Kpp56Khx9+OB566KF8eO655/KhOp2GtE5at9vBo2fJ5yJeOlrcfXk1jr4U8bklPS3nV/XcsTJb/lJ8WEzPFJ1fz4q47rKX4sAMvMvU8bX0fCou+/BHcSq/lFfjjTc/GZd/Ol/pIjofT+/I/o/1sTeK6cKK6+LaN98Yew2dzp9WXbqW80/H05WZmZ/H+xflj6hL11K4+N8H3bqemfB90KVrmTHfBx1eT8frT6cuXcuM+A4AZpMJm1dt27YtDxO//OUvizkRv/ZrvxaPPvpoPv71r389/tt/+2/5ePIbv/Ebceedd8Z3vvOdYs7UpSYRG+LASNVudfpA9t9m8/PpdKd99S9ix9FPxc4NEQdmUPOqjq/nF6srd6GuvTbymu4PX5oxzcU6vpanI+6ovCHx9PkVcU92YW/UVv9fVPXn03htefOD696Ih99f2dH8vscuxtVN7Vrqz/liv09duJYZ9X0wxet547rs35nyfTDV9+bnM+z7oL3rGf376HT96TS1a6k3E96b1rrVvApobtoeDvjAAw/kNRy1PvOZz8Q3v/nNfPxf/It/EW+//XY+XpWaYTVuMyXpyzGvFk5feKkq+N743I8erhTGm82vLdhGVtiYYaGj4+vJ56cmCJVmFNWmFSP/53ExdfzeZOecCoD33hypocubB/viovz/cVPt/Z90qwJUewX46TK1a6k954v/eZvqtdQUbGfE98EUryeFjhnzfdCFz9mM+j5o73paFdQnXn86Te1aas2o/89pohuhA5i6Kffp+NjH6lf5zd/8zbzvxjvvvBN/+Zd/GVu2bMnn1WrcZspefSwefumyuGvPntizZ0Nc/kFRz9tifs8dG7IC7oGL0M65TR1eT+7NYyPX8+obb8YnL36bpIpOryUVMFKhL28n3BdvXLcn7llRWcRMk8LizC5stGPGfx9Mxkz9PuiU74MZbnZ8BwAzQ8fpYNGiRXHZZZfFiRMn4t//+38fl19+eSxevLhYWp7zT+8oOrTtiDfik/HBLypfgGPnfzrvLPrJm+/NCrtZgTfdQfvkzXHvzjuyr8+Zo/3rmflf9J1cS97X40enRu4ypwLTtdfNzFLG+V98UFeY6/nUZfHh+z/veP5M0Pk5p8JGXhqccYWNzq5l/oz/Puj8vZm5Or2Wmf590Ol7MJPfs87PbeZ+BwCXpo8V/7btn/2zf5b/m9o/Pvvss/l46sPx27/92/l46VbcE3dd9lIcHVv/W8x/NR7LC7rF8PBL8eEM6gMxxoTXk42/+ka8ee3K0V8aWXltvPlG4wYzQBvXkv8f3+eWjBT4Vlx37Yz5P+Uxfv5+fHjtdVEpAqVfPkrlo+xT1On8maDTc16xOm7+YPRu+ozS0bV8f+Z/H3T63szk74MOr2XGfx+0up5WOl1/OnV6bjP5OwC4JE3Yp+Nf/st/mf8yVdWBAwfyfzds2JD/W53+t//238aTTz6Zj6efz63dZupSW9O7Kp0m482in0DSan6NavX9jAodk7iemnbP8ebBi9RGuJnOryW1Lb63+tOlM+5aGto0Z4Gp+rv2de3NO50/7aZ2LXXvUeHi/U5/F96XqhnxfdCF65kx3wdTv5aZ9X3QwfXkOl1/Ok3tWmbWd8D49OmAmWHKHclrQ8eyZcvinnvuycebqQaR7ocOAICxhA6YGabckbzq7//9vx//5J/8k/i7v/u7OH36dPyH//Af8uHMmTP5vCQ9owMAAKBW26EjdRjv7e2NX/ziF/HII4/EwMBAPqTxDz+s/DLRpz892kkNAAAgmTB0pGrLVFWSOov/7d/+bf7Qv/Rv1d/8zd/E448/Hu+9917ccccd8Vu/9Vv5T+kCAAAkE/bpuP322+PjH/94/OAHP6h7Knkz6WnkX/jCF+JXv/pVvPzyy8VcAIByjNenA5heU+pIPn/+/Ljpppti4cKFeagY78F/qYbj3LlzAgcAMC1ahQ5gZpkwdAAAAExF2x3JAQAAJkPoAAAASiV0AAAApRI6AACAUgkdAABAqYQOAACgVEIHAABQKqEDAAAoldABAACUqkuh41j0z58f82uGVXvPF8vGk7ZbFW2tCgAAXJK6WNOxLHadGoqhoTQcikXbl8T8/mPFMgAAYK4qqXnVyhg4tSuWDR4OsQMAAOa28vp09Hwx1i0bjMPV1HF+b6waaX7VXx9G3h5dNtosq7HpVcN0zf5W7d2rmRYAAMxQ84aGhoaL8aYuXLhQjDW3YMGC7L8pEOyOa069EHf3VOZnqSD2rloSb20bioGVDcuP9ceqc9+IF+5+O5u/PgaX7YpTL9wdPSlILHk21uXrNe6zdjqNr484lPad8seqWLI9YlfN8Sc6bwAAoHsquaC5tkLHeDuoaBU6vhrxeDYvUpjYHieLJbmNh2JoIMZsd6x/fhxe2ySo1B4j7S/fdRZUKls1OT4AADAdJsoM5TWvOv98PHtyUSwcCQEb41DeybwYUhXFGOfj3JliFAAAmBVKCh3Hon/J9lh0aCDyaNGzMBbFYOxu2uniZDz7fDE/DyobY22+0dVxzbKT8dbb+ZJsl4ezPRTS/k5uj0eLjiHn9+4eXQYAAMwoXQwdJ2P7kmpH8dTUqdLfoqLya1bZCsXybBj5Od1lseitr1bm1QaV6Im7t22MwfXF+odTXUlVtr9Do8u+GutqlgEAADNJl/p0XGR5B/S3YttQNbAAAADT5eL16ZhGxx7dHieXXRNXF9MAAMDMcYmGjvTLWEWzq2xYP7gxDo38khUAADCTzI7mVQAAwEUzJ5pXAQAAM5fQAQAAlEroAAAASiV0AAAApRI6AACAUgkdAABAqYQOAACgVEIHAABQKqEDAAAoVdeeSP7QQw8VYwAAwGxx3333FWOtTZgZUugYbzh37lzT+Y3DH/7hHw6PcXZgeHlsHj5STI7RcvnZ4YHly4cHzqbxI8ObozJ+ZHMML6/MrJs/qnFew/SRzcOxfCDbe6bDY9ep3U+d8Y5fvyxdS/byV4bN6SzScWM4H60aOU6T/Qxky4rtR1+TTH5d1fkDDedTVezjyOi66bhnB5Y32Wf9eddPV865uk3l3BvXb7YOAADToVm5vZMhlfGbzW8cJsoM5TevWr4oeovRplouPxFnzhajhdX7jsTi/g3xyLliRltORH/vvJg3Lxueuy2Gj2+NhcWSTo49GeceeSD2L78z1o4ccNTqfcORfQ6y4Uhs3v9Adk0LY+v9m2P/c0eLNSKOPrc/Nt9fc74jsms6k11L2j5LLyf6d0dlq6Oxpbc/Fh+p7PtAPBX78/nNZPt4IOJAsY/9a+bFhmyLsfscx9Hd0b/4SHEdw7FvdTF/xLl45IbeeOrOs+OsAwDAbFd+6DhxJsYtv7dcvjwWjUkEq2PfkcXRv3vC4nCN5TFwNivwnh2I5fufqy9Id3TsGqv31YeXOqMhp7d/cRxptd7RLZUgNG/NaDBYfVsWQKrneDSeOz0Q25oW0rNrqi5I28Tp+GkKYud+GqeXj26zcOv92bJWsn0cKM4t38fyuLOajmr3OZ7eRdlruiZuaJUCzx2Op05sjvu3Nn+lAACYG8oNHQvXxp3L90fNzft6rZbnhdXF8ZlmZdXV22Lg9JrY0knuSBZujQMDp+OBagF5MsduSxFy8jv7+7KY1MS5R+KGNRFH8nXOxsDyYn629rbiHFMtyek717YINjNE9poez67hQGzIA1TH7wkAAHNCyTUdRZOhNQ0F0qzQ/Ug+XV2+paYGotJEKAa2NS+wp20ODMTpNTU1BG1Kd/5Hm2dN5tiFVEtxwyMxUUVAS2fPxIlq06485ORzcwvX3hnx1O7Y/VSM1jy0a+FnYvGJ/qhWBOXNuyqjU9Abi5bXNDc7+tyYfS7cejzOZsnpdGPVSBHsRoLeiOx1nndD8T60GgcAYLYov3lVaop0NoWEol9FGjZErK2W6tPyIxFrqsvm5VUAcXy8Jjl5rcVI9UAHUk1CRP+GIjC0deyaPiHZ0LIpUSdSbU30R2/a54Yzsbj2UrJru3/x/ti/+P7ovFVSan5WCXnpXDfEneM0r2rXaHDMX4PnYnSfI03EKk3JxjajyrY9nvrh9I6spzYEAGDu6epP5j744IPFFFNxdMu8eO62LnS6Ts24es/E/a2aeQEAMKv98pe/LMbG6u/vj4GBgWKquVTG78ZP5pZf00FnsqDwQMsO5J05urt/tBkXAAAUUuCo/bdsQseMkX5edl7M630q7qz+qlTHin0UTZnW7N/c+tezAACYkxqDxnQED6Fjxkj9H9KvWR2fRF+Oquo+Jvj1LAAA5qTagFHbtKrs4CF0AADAHFMNHBP16egWoQMAAOaQxqAxHcFD6AAAgDmiVcAoO3hMU+io7+A85sF6Nc97SEP9szDSA+Oy+WMe8DD6ILn0E7O124/u53+vbFszjN3NRMee3MPq8nNq9lCK6vGm8nDBiyH9/O5MfHBfW+eV3sfah0ACADCdyg8deaGwN87cX9PB+UDE4WoJMBXC15yOgbPV5Wfjzqd6Gwr/y2P56TUtHyy3el912yOxOVu3uq/jWz+dLR2dHs4fnFdT+Gzr2JOQ/+zt5th8+oGGwnBW+F2zPzYfyY51UX9VahJhauHWON5WJ/fJB7VJafu8AAC4WEoOHefikQ39sTgrZNc96C4rKG7Np7PlD6RCeG2hcWFsPTAQ0b+77s70nfcPxOkHplg7sPq2LJScjp/mO2n/2J06d/ip7IS3xbY7I5463HjGy2ORB2cAADCHlBs6zh2Op05sjtta/W5rq+UL18ady6vhoNC7Ne5f3B8bpnIL/ehzsX/5nbE2hYxOjt0o1ZC0bB51LvLMkR1k4do8dRTrpRqANbE/TkR/72gzrrqmYSNVOZXagi1bbsjmV2pmmq/XIK9Vqq5XrdGpb9q25Wj9eYzsq+m2tWprMIrxR0abplWup9m+a7dL2tlPoek5VbYZfW0a9994vcVsAAAumvKbV030ROyWy0/EmbPFaGH1viOxuH9Dh013igJwKoQ+d1t9s6YOjt22FGaiCDYpwGRTlcqO1bGvpvnX8aJ6pa5p2P7a5lgn4vSiA9n8yrM2Wq9XlRW+04MFR5qSRTyQVjq6O/oXHym2TTVO9ecxnFdBtdh2XNnreiZ7PfP1N8eJvHao2b4n0mw/yXjnVP/ajEqBozeeuvNsZZtsGDkFT2YHALhoyg8dJ87EuOX3lsubNUPKCrVHFkf/7k5uXxcF4LMDsXz/c0WBttDRsWus3teyT0aladXaYtnCSJUd457vSEf2VENQa3leWzKi5XqFcz+N06kAXw1Ya/Znl5ddXe+i7LrXjN9PpdW248pe121Fib6u2VqnWuxn3HNqeG2qitqr+8d08OiNRYuLUQAApl25oSNvqrQ/nmtV5m61PC88Lo7PNCvVr94WA+N0Km9p4dY4MHB69G75ZI49oaOxu/9EnOjvLQLCvOjNpqMx7FSl5kNrIo7kd+XPxsDyYn6jdtfLiuyVdYoh3ebPO1oPx4HYkJ9P69etybYXXbfOaWFs3XcxO+4DAMxtJdd0ZIW9+9MvRjUUdrNC9CP5dHV5bR+C1KymP2JgW0PTmapKZ+/Ta1rc8R/Hwq331zTPmsyxC636dOR9RgbibG1BOQ8JLYLX2TNxotrsJw87+dyx2llv4WdicfaKtGoWtXDr8TibpZXTzaojJth2anpj0fKa5mrpNSpGxzWZcyqC5Nhtsve1aT8VAACmQ/nNq1JTpLMpJBTNZNKwIWJttVSflh+JWFNdNi+/pT/S56GpvNai5e3+cayObenHqTYUgaGtY9c08cmG8ZopHX1ufywfaVpVlZpYLY/9zVJHqrWJ/uhN+95wJha3uqS21lsd+7LXOTvZkXPNO3KPNMtKtS6Li6ZHq+O2zcV15WmwxbaT0rjv0eCZ7/e5VH/RjsmcU3as46nfz+g2k74MAAC6Zt7Q0NBwMd7UhQsXYsGCBcVUaw899FA8+OCDxRQAAHCx/fKXvyzGJieV8e+7775iqrWJMkP5NR0AAMCcJnQAAAClEjoAAIBSCR0AAECphA4AAKBUQgcAAFCqaQod5+KRG4pnLaSh8cF6Nc+SSEP9szDSg92y+WMeuJDm35A/6O/oltFt6/fzv1e2rRnG7maiY1eO0an8nJo9JKJ6vGYPF5zRJv9atJSetD6lfXroHwDAeN5+++1JD91UfujIC5a9ceb+mqd0H4g4XC0ppkL4mtMxcHb0Cd53PtXbUPhfHstPr2n5oLfV+6rbHonN2brVfR3f+uls6ej08JGGJ5C3dexJyK75gdObY/PpBxoK1Fkhec3+2HwkO9bxrQ0PEZxOJQSIyVi4NY4PH4/xngMJAMClr+TQcS4e2dAfi7NC9r7qE8iTrLC5NZ/Olj+QCuG1Bc+FsfVAehL17ro72HfePxCnH5hi7cDq27JQcjp+mu+k/WN36tzhp7IT3hbb7ox46nDjGS+PRb3FKAAAzAHlho5zh+OpE5vjttrAUavV8oVr487l1XBQ6N0a9y/ujw1TuT1/9LnYv/zOWJtCRifHbpRqSFo2jzoXeebIDrJwbZ46ivVS7cKa2B8nor93tBlXXdOwkaqcSk3Eli03ZPMrNTPN12uQ1ypV16vW6NQ3bdtytP48RvbVdNtWGmtKaqeL8aOj+0uHOPdIupbK9GhNUpPtHhlt7lZb49TW9QMAMCOV37xq+aIY98Z+y+Un4szZYrSwet+RWNy/ocNmQUXhOhVWn7utvllTB8duWwozUQSbFGCyqUplx+rYV9P863hRvVLXNGx/bXOsE3F60YFs/r5sy/HWq8oK7b3ZkUeakkU8kFY6ujv6Fx8ptk01TvXnMZxXQbXYdtKy1/yBiAP5vlKTtnmxIdK1VKZPtKxJyrY7k71HTdZref0Tfb4AALjoyg8dJ87EuOX3lsubNUPKCsxHFkf/7k7udBeF67MDsXz/c/WF3Y6OXWP1vpZ9MipNq9YWyxZGquwY93xHOrKn2oday/PakhEt1yuc+2mcrg1Ya/Znl5ddXe+i7LrXjN9PpdW2k5a95geK1ydv0lZzLXVN3Bpl220rqp4a12t6/b2xaHExCgDAjFVu6MibKu2P51qVuVstz5s+LY7PNCvVr94WA+N0Km9p4dY4MHB69A7+ZI49oaOxu/9EnOjvLQrI86I3m47GsFOVmjStiTiS38E/GwPLi/mN2l0vK6ZX1imGVIuRd9YejgOxIT+f1q9bk21nipbXvzC27ruYHfIBAGhHyTUdWaHw/krzmrrCblaIfCSfri6v7UOQmvr0Rwxsy5sVjVXp7H16TYs7/uNYuPX+muZZkzl2oVWfjrzPyECcrS2854XkFsHr7Jk4UW0elIedfO5Y7ay38DOxOHtFWjWLWrj1eJzNSuunm1UxTLDtWL2xaHlNE7R03cVoKVpef+oHMlH/EwAALrbym1elpkhnU0gomu6kYUPE2mqpPi0/ErGmumxefkt7pM9DU3mtRcvb/eNYHdvSj1NtKAJDW8euaXaUDeM1Uzr63P5YPtK0qio1sVoe+5uljlRrE/3Rm/a94UwsbnVJba23OvZlr3N2siPnmne4HmmWlGpdFsf9+bWtjts2F9eVp8EW27Y0GibzdZ9L9SQlavd1AgBgRpo3NDQ0XIw3deHChViwYEEx1dpDDz0UDz74YDEFAABcbKdOnSrGOnf11VfnZfz77ruvmNPaRJmh/JoOAABgThM6AACAUgkdAABAqYQOAACgVEIHAABQKqEDAAAoVcmho/bhbWm82fMf0vwbigf2FeuMDNX5Se16VaPzjm6p3W50GO+5GvWa7R8AAJiqaa7pWB7LT6+pfzr5GMtj4Gzlad758+qqD/KbwOp91SeAH4nNNfsY9yGDAABA6aa9edWd9w/E6QfaCxILt94fm088FYfVPgAAwCVr+vt09G6N+xf3x4bpasd0dEvMu6FFyDn3SNww0gzrp8XMirrmWuNXzQAAAOO4KB3JV+87Eov7N0zYf+LcIw/E/uV3xtpSWkgdjS29/bH4SKUZ1oF4KvYXS5K65lr7H9DXAwAAJumihI6sSB/7jiyO/t3NahBORH9vpYaht39xHDm+NaaUOVbvi+Fm+zj30zi9fCC2ra5M5k25KqMVqYYkr+lYUxdGAACAzlyk0JFZvS0GmnYqH+0EPjy8L4snVb2xaHkxWpWCQyyOz3S7JiQ1u1oTcSQ/h7Mx0HhcAACgbRcvdMTC2HpgIE6vabcmYWF8ZvGJul+zOrq7P05svq0mmDTRqk/Hws/E4hP9Ua1syZtyVUYjzp6JE8sXZTEnc+5wPHUinwsAAEzCRQwdmYVb40AH1Qir952NgeiP3qKD95rTA3F237iRYxypidfm2L+msq8Ncedo86pUC1M9zoYzsVhNBwAATNq8oaGh4WK8qQsXLsSCBQuKqdYeeuihePDBB4spAADgYjt16lQx1rmrr746L+Pfd999xZzWJsoMF7emAwAAmPWEDgAAoFRCBwAAUCqhAwAAKJXQAQAAlEroAACAWSr9AtVkh24SOgAAgFIJHQAAQKmEDgAAoFRCBwAAUCqhAwAAKJXQAQAAc0R/f38xVq/V/G4ROgAAYA5pDBhlB45E6AAAgDmmGjSmI3AkQgcAAMwRAwMDxVh94KidXwahAwAA5pDGgFF24EiEDgAAmGOqQWM6AkcidAAAwBw0XYEjEToAAIBSCR0AAECphA4AAKBUQgcAAFCqeUNDQ8PFeFMXLlyIBQsWFFOtPfTQQ8UYAAAwW9x3333FWGsTZYauhQ4AAGBumigzaF4FAACUSugAAABKJXQAAAClEjoAAIBSCR0AAECphA4AAKBUQgcAAFCqtp7TAQAAMJ4pPRwQAABgKjSvAgAASiV0AAAApRI6AACAUgkdAABAqYQOAACgVEIHAABQKqEDAAAoUcT/HyLChXYts8SyAAAAAElFTkSuQmCC;" vertex="1" parent="1">
          <mxGeometry x="220" y="70" width="353.7" height="300" as="geometry" />
        </mxCell>
        <mxCell id="D1mZ0Xc0935gew-mhvEQ-2" value="" style="endArrow=classic;html=1;rounded=0;fillColor=#6d8764;strokeColor=#FF3333;" edge="1" parent="1">
          <mxGeometry width="50" height="50" relative="1" as="geometry">
            <mxPoint x="260" y="400" as="sourcePoint" />
            <mxPoint x="260" y="350" as="targetPoint" />
          </mxGeometry>
        </mxCell>
        <mxCell id="D1mZ0Xc0935gew-mhvEQ-3" value="" style="endArrow=classic;html=1;rounded=0;fillColor=#6d8764;strokeColor=#FF3333;" edge="1" parent="1">
          <mxGeometry width="50" height="50" relative="1" as="geometry">
            <mxPoint x="520" y="400" as="sourcePoint" />
            <mxPoint x="520" y="310" as="targetPoint" />
          </mxGeometry>
        </mxCell>
        <mxCell id="D1mZ0Xc0935gew-mhvEQ-4" value="Mesaje sugestive pentru control/input" style="text;html=1;strokeColor=none;fillColor=none;align=center;verticalAlign=middle;whiteSpace=wrap;rounded=0;" vertex="1" parent="1">
          <mxGeometry x="190" y="400" width="140" height="30" as="geometry" />
        </mxCell>
        <mxCell id="D1mZ0Xc0935gew-mhvEQ-5" value="Transmitere date catre target" style="text;html=1;strokeColor=none;fillColor=none;align=center;verticalAlign=middle;whiteSpace=wrap;rounded=0;" vertex="1" parent="1">
          <mxGeometry x="463.7" y="400" width="110" height="30" as="geometry" />
        </mxCell>
        <mxCell id="D1mZ0Xc0935gew-mhvEQ-7" value="" style="endArrow=classic;html=1;rounded=0;fillColor=#6d8764;strokeColor=#FF3333;" edge="1" parent="1">
          <mxGeometry width="50" height="50" relative="1" as="geometry">
            <mxPoint x="599" y="175" as="sourcePoint" />
            <mxPoint x="570" y="175" as="targetPoint" />
          </mxGeometry>
        </mxCell>
        <mxCell id="D1mZ0Xc0935gew-mhvEQ-8" value="" style="endArrow=classic;html=1;rounded=0;fillColor=#6d8764;strokeColor=#FF3333;" edge="1" parent="1">
          <mxGeometry width="50" height="50" relative="1" as="geometry">
            <mxPoint x="195" y="205" as="sourcePoint" />
            <mxPoint x="228" y="205" as="targetPoint" />
          </mxGeometry>
        </mxCell>
        <mxCell id="D1mZ0Xc0935gew-mhvEQ-9" value="Afisarea datelor de la senzorul analogic de sunet" style="text;html=1;strokeColor=none;fillColor=none;align=center;verticalAlign=middle;whiteSpace=wrap;rounded=0;" vertex="1" parent="1">
          <mxGeometry x="120" y="200" width="70" height="30" as="geometry" />
        </mxCell>
        <mxCell id="D1mZ0Xc0935gew-mhvEQ-10" value="Comenzi pentru aplicatie" style="text;html=1;strokeColor=none;fillColor=none;align=center;verticalAlign=middle;whiteSpace=wrap;rounded=0;" vertex="1" parent="1">
          <mxGeometry x="590" y="160" width="70" height="30" as="geometry" />
        </mxCell>
      </root>
    </mxGraphModel>
  </diagram>
</mxfile>
